HIERARCHY
ROOT Hips
{
	OFFSET 0.000000 0.000000 0.000000
	CHANNELS 6 Xposition Yposition Zposition Xrotation Yrotation Zrotation
	JOINT LeftUpLeg_virtual
	{
		OFFSET 0.000000 0.000000 0.000000
		CHANNELS 3 Xrotation Yrotation Zrotation
		JOINT LeftUpLeg
		{
			OFFSET 13.026900 -6.336304 -1.092800
			CHANNELS 3 Xrotation Yrotation Zrotation
			JOINT LeftLeg
			{
				OFFSET 0.524474 -46.096886 9.782700
				CHANNELS 3 Xrotation Yrotation Zrotation
				JOINT LeftFoot
				{
					OFFSET -0.524474 -53.427422 -12.948200
					CHANNELS 3 Xrotation Yrotation Zrotation
					JOINT LeftToeBase
					{
						OFFSET 0.192200 -14.009700 16.364100
						CHANNELS 3 Xrotation Yrotation Zrotation
						JOINT LeftToe_End
						{
							OFFSET -1.784700 -0.561700 9.474800
							CHANNELS 3 Xrotation Yrotation Zrotation
							End Site
							{
								OFFSET 0 0 0
							}
						}
					}
				}
			}
		}
	}
	JOINT RightUpLeg_virtual
	{
		OFFSET 0.000000 0.000000 0.000000
		CHANNELS 3 Xrotation Yrotation Zrotation
		JOINT RightUpLeg
		{
			OFFSET -12.883000 -6.336304 -1.092800
			CHANNELS 3 Xrotation Yrotation Zrotation
			JOINT RightLeg
			{
				OFFSET -0.524587 -46.096825 9.782800
				CHANNELS 3 Xrotation Yrotation Zrotation
				JOINT RightFoot
				{
					OFFSET 0.524587 -53.427383 -12.948300
					CHANNELS 3 Xrotation Yrotation Zrotation
					JOINT RightToeBase
					{
						OFFSET -0.192200 -14.009700 16.364100
						CHANNELS 3 Xrotation Yrotation Zrotation
						JOINT RightToe_End
						{
							OFFSET 1.784700 -0.561700 9.474800
							CHANNELS 3 Xrotation Yrotation Zrotation
							End Site
							{
								OFFSET 0 0 0
							}
						}
					}
				}
			}
		}
	}
	JOINT Spine_virtual
	{
		OFFSET 0.000000 0.000000 0.000000
		CHANNELS 3 Xrotation Yrotation Zrotation
		JOINT Spine
		{
			OFFSET 0.072000 7.257294 -0.789700
			CHANNELS 3 Xrotation Yrotation Zrotation
			JOINT Spine1
			{
				OFFSET 0.000000 12.508769 -0.658067
				CHANNELS 3 Xrotation Yrotation Zrotation
				JOINT Spine1_split
				{
					OFFSET 0.000000 12.508769 -0.658067
					CHANNELS 3 Xrotation Yrotation Zrotation
					JOINT Spine2
					{
						OFFSET 0.000000 12.508769 -0.658067
						CHANNELS 3 Xrotation Yrotation Zrotation
						JOINT Neck_virtual
						{
							OFFSET 0.000000 0.000000 0.000000
							CHANNELS 3 Xrotation Yrotation Zrotation
							JOINT Neck
							{
								OFFSET 0.000000 14.033295 7.520400
								CHANNELS 3 Xrotation Yrotation Zrotation
								JOINT Head
								{
									OFFSET 0.000000 8.198502 5.703100
									CHANNELS 3 Xrotation Yrotation Zrotation
									JOINT HeadTop_End
									{
										OFFSET 0.000000 17.760803 13.332701
										CHANNELS 3 Xrotation Yrotation Zrotation
										End Site
										{
											OFFSET 0 0 0
										}
									}
								}
							}
						}
						JOINT LeftShoulder_virtual
						{
							OFFSET 0.000000 0.000000 0.000000
							CHANNELS 3 Xrotation Yrotation Zrotation
							JOINT LeftShoulder
							{
								OFFSET 6.292450 5.785301 -0.669000
								CHANNELS 3 Xrotation Yrotation Zrotation
								JOINT LeftShoulder_split
								{
									OFFSET 6.292450 5.785301 -0.669000
									CHANNELS 3 Xrotation Yrotation Zrotation
									JOINT LeftArm
									{
										OFFSET 13.907140 -6.093903 1.965100
										CHANNELS 3 Xrotation Yrotation Zrotation
										JOINT LeftForeArm
										{
											OFFSET 34.140198 0.000000 0.000000
											CHANNELS 3 Xrotation Yrotation Zrotation
											JOINT LeftHand
											{
												OFFSET 40.960209 0.000000 0.000000
												CHANNELS 3 Xrotation Yrotation Zrotation
												End Site
												{
													OFFSET 0 0 0
												}
											}
										}
									}
								}
							}
						}
						JOINT RightShoulder_virtual
						{
							OFFSET 0.000000 0.000000 0.000000
							CHANNELS 3 Xrotation Yrotation Zrotation
							JOINT RightShoulder
							{
								OFFSET -6.292450 5.785301 -0.669000
								CHANNELS 3 Xrotation Yrotation Zrotation
								JOINT RightShoulder_split
								{
									OFFSET -6.292450 5.785301 -0.669000
									CHANNELS 3 Xrotation Yrotation Zrotation
									JOINT RightArm
									{
										OFFSET -13.907140 -6.093903 1.965100
										CHANNELS 3 Xrotation Yrotation Zrotation
										JOINT RightForeArm
										{
											OFFSET -34.140198 0.000000 0.000000
											CHANNELS 3 Xrotation Yrotation Zrotation
											JOINT RightHand
											{
												OFFSET -40.960209 0.000000 0.000000
												CHANNELS 3 Xrotation Yrotation Zrotation
												End Site
												{
													OFFSET 0 0 0
												}
											}
										}
									}
								}
							}
						}
					}
				}
			}
		}
	}
}
MOTION
Frames: 5
Frame Time: 0.03333333
-5.047893 102.547958 -2.456879 0.000000 0.000000 0.000000 -3.096347 -6.895225 5.290256 -65.928620 5.128732 7.360977 54.468795 -0.328111 -4.929558 2.676771 0.091126 -0.946771 -1.242540 -0.000001 0.000000 0.000000 0.000000 0.000000 -3.096347 -6.895225 5.290256 -21.495404 -6.819468 -6.934443 51.885313 7.813648 3.594180 -26.934499 3.273209 -8.701763 -5.454418 0.000001 0.000002 0.000000 0.000000 0.000000 -3.096347 -6.895225 5.290256 13.732182 0.689568 -4.453267 2.722913 0.133859 -0.943517 0.000000 0.000000 0.000000 0.000000 0.000000 0.000000 2.720028 0.135221 -0.952573 2.743899 0.369062 0.041968 21.918272 4.192716 -0.129340 0.000000 0.000000 0.000000 2.720028 0.135221 -0.952573 0.619242 -1.200853 -10.994815 0.000000 0.000000 0.000000 17.248861 -24.148528 -54.371591 0.000014 -28.855384 0.000014 0.000000 0.000000 0.000000 2.720028 0.135221 -0.952573 0.265362 6.336859 17.304040 0.000000 0.000000 0.000000 14.561905 17.232543 47.386049 0.000008 42.148978 -0.000012 0.000000 0.000000 0.000000 
-5.211869 102.452751 -3.083157 0.000000 0.000000 0.000000 -2.817339 -6.797626 5.685601 -64.688380 4.516598 6.007612 46.042432 -1.154053 -4.254996 8.568700 0.207518 1.618098 -0.917274 0.000000 0.000000 0.000000 0.000000 0.000000 -2.817339 -6.797626 5.685601 -22.451342 -6.700273 -7.105704 52.289982 7.753839 3.524329 -26.691756 3.178902 -8.845391 -5.451043 0.000002 -0.000000 0.000000 0.000000 0.000000 -2.817339 -6.797626 5.685601 13.972210 0.648336 -4.528615 2.847388 0.187926 -0.917955 0.000000 0.000000 0.000000 0.000000 0.000000 0.000000 2.844043 0.192473 -0.929923 2.777816 0.367201 -0.028368 21.720487 4.314692 -0.576000 0.000000 0.000000 0.000000 2.844043 0.192473 -0.929923 0.640730 -1.333960 -11.005098 0.000000 0.000000 0.000000 17.374234 -24.472991 -55.481637 0.000004 -28.210918 0.000014 0.000000 0.000000 0.000000 2.844043 0.192473 -0.929923 0.180821 7.065460 17.444803 0.000000 0.000000 0.000000 15.301593 17.417508 45.815037 0.000009 44.069518 -0.000012 0.000000 0.000000 0.000000 
-5.390449 102.487961 -3.856018 0.000000 0.000000 0.000000 -2.193802 -6.841792 5.856510 -63.764583 3.739684 5.541182 40.626587 -0.880973 -3.520256 11.713177 0.144560 1.245917 0.141987 -0.000000 -0.000001 0.000000 0.000000 0.000000 -2.193802 -6.841792 5.856510 -23.709861 -6.742087 -6.995491 52.366176 7.890577 3.472774 -26.111019 3.095793 -9.131130 -5.440129 0.000004 -0.000002 0.000000 0.000000 0.000000 -2.193802 -6.841792 5.856510 14.216726 0.633566 -4.528260 2.948588 0.244172 -0.882540 0.000000 0.000000 0.000000 0.000000 0.000000 0.000000 2.944869 0.250127 -0.897077 2.784120 0.379460 -0.086376 21.333140 4.511398 -0.839697 0.000000 0.000000 0.000000 2.944869 0.250127 -0.897077 0.660196 -1.456142 -10.992152 0.000000 0.000000 0.000000 17.052641 -24.459754 -56.653294 -0.000008 -27.764825 -0.000007 0.000000 0.000000 0.000000 2.944869 0.250127 -0.897077 0.106658 7.709674 17.533396 0.000000 0.000000 0.000000 15.764217 17.647320 44.412957 0.000012 45.711813 -0.000019 0.000000 0.000000 0.000000 
-5.650942 103.012085 -4.746433 0.000000 0.000000 0.000000 -1.054685 -6.561738 6.059647 -63.461186 3.526998 5.218649 38.902247 -0.496887 -3.312929 10.334707 0.076636 1.041815 1.018065 0.000000 0.000000 0.000000 0.000000 0.000000 -1.054685 -6.561738 6.059647 -25.077758 -6.871276 -6.785988 51.525366 7.748395 3.451391 -25.053260 2.967140 -9.290477 -5.438581 0.000007 -0.000002 0.000000 0.000000 0.000000 -1.054685 -6.561738 6.059647 14.457957 0.480934 -4.675374 3.017415 0.242815 -0.880788 0.000000 0.000000 0.000000 0.000000 0.000000 0.000000 3.013747 0.247733 -0.895310 2.749067 0.385450 -0.089713 20.651190 4.516997 -0.703623 0.000000 0.000000 0.000000 3.013747 0.247733 -0.895310 0.672247 -1.833724 -10.988909 0.000000 0.000000 0.000000 16.841669 -24.812076 -57.023081 -0.000003 -27.474783 0.000011 0.000000 0.000000 0.000000 3.013747 0.247733 -0.895310 0.055487 8.066091 17.607941 0.000000 0.000000 0.000000 15.497257 17.648478 43.807693 0.000010 46.719549 -0.000022 0.000000 0.000000 0.000000 
-5.965400 104.157913 -5.681469 0.000000 0.000000 0.000000 0.556336 -5.795775 6.112970 -63.494866 3.962501 4.695936 40.841598 -1.329783 -3.719041 5.743676 0.045860 2.039803 -0.489576 0.000000 -0.000001 0.000000 0.000000 0.000000 0.556336 -5.795775 6.112970 -26.230991 -7.144641 -6.347520 49.417590 7.155821 3.459084 -23.458476 2.772957 -9.205572 -5.441766 0.000001 0.000002 0.000000 0.000000 0.000000 0.556336 -5.795775 6.112970 14.630672 0.105317 -4.688334 3.046272 0.131667 -0.892781 0.000000 0.000000 0.000000 0.000000 0.000000 0.000000 3.043617 0.134691 -0.903074 2.694358 0.390607 -0.039642 19.870873 4.387606 -0.369024 0.000000 0.000000 0.000000 3.043617 0.134691 -0.903074 0.676135 -2.460480 -11.017394 0.000000 0.000000 0.000000 17.060216 -25.802202 -56.463675 0.000009 -27.297754 -0.000001 0.000000 0.000000 0.000000 3.043617 0.134691 -0.903074 0.026305 8.085972 17.732001 0.000000 0.000000 0.000000 14.745639 17.402620 43.964439 -0.000011 47.081300 -0.000002 0.000000 0.000000 0.000000 
